<svg id="Capa_1" data-name="Capa 1" xmlns="http://www.w3.org/2000/svg" viewBox="0 0 288.24 59.97"><defs><style>.cls-1{font-size:24px;font-family:BenchNine-Regular, BenchNine;}.cls-1,.cls-5{fill:#fff;}.cls-2{letter-spacing:0em;}.cls-3{letter-spacing:-0.01em;}.cls-4{letter-spacing:-0.02em;}</style></defs><text class="cls-1" transform="translate(47.62 20.43)">A<tspan class="cls-2" x="9.33" y="0">R</tspan><tspan x="19.78" y="0">TICU</tspan><tspan class="cls-3" x="50.92" y="0">L</tspan><tspan x="57.91" y="0">OS </tspan><tspan class="cls-4" x="80.7" y="0">P</tspan><tspan x="89.92" y="0">ARA EL HOGAR</tspan></text><path class="cls-5" d="M181.42,237c-2.37.9-3.31,2-3.31,3.1,0,1.33,1.3,1.8,2.81,2.12.18.07.54.43.54,1.22a2.23,2.23,0,0,1-2.41,2.13,3.84,3.84,0,0,1-3.71-4.18c0-3.2,2.77-5,5.54-5.68Zm7.42,0c-2.38.9-3.31,2-3.31,3.1,0,1.33,1.29,1.8,2.8,2.12.18.07.54.43.54,1.22a2.23,2.23,0,0,1-2.41,2.13,3.84,3.84,0,0,1-3.71-4.18c0-3.2,2.78-5,5.55-5.68Z" transform="translate(-175.34 -201.57)"/><path class="cls-5" d="M211.77,254.88c-.18,1-1.19,5.11-1.51,6.12H191.57v-1.3c3.28-.32,3.5-.5,3.5-3.52V242.43c0-3.06-.44-3.28-2.88-3.5V237.6h11.69c3.78,0,5,0,5.55-.07,0,.65.21,3.6.36,5.83l-1.41.18a9.07,9.07,0,0,0-1.54-3.35c-.65-.72-1.12-.93-3-.93h-2.34c-1.36,0-1.51.07-1.51,1.29v7.53h3.53c2,0,2.38-.54,2.92-3.1h1.4v8h-1.4c-.58-2.66-.87-3.1-3-3.1H200v6.19c0,2.49.07,3.24,2.31,3.28h2.55c2,0,2.56-.25,3.35-1.22a16.47,16.47,0,0,0,2.2-3.6Z" transform="translate(-175.34 -201.57)"/><path class="cls-5" d="M233,254.67c-.29,1.54-1.29,5.36-1.62,6.33H213.5v-1.33c3.17-.22,3.45-.47,3.45-3.49V242.46c0-3-.36-3.31-3.06-3.53V237.6h11.23v1.33c-2.8.26-3.16.51-3.16,3.53v14c0,2,.07,2.88,2,2.91.07,0,1.73,0,1.87,0,2.05,0,2.59-.43,3.46-1.4a14.89,14.89,0,0,0,2.26-3.75Z" transform="translate(-175.34 -201.57)"/><path class="cls-5" d="M267.17,251.14c-2.05.36-2.3.5-2.3,3v2.77a20.37,20.37,0,0,0,.21,3.49,54,54,0,0,1-8.71,1.19c-8.46,0-13.32-5.15-13.32-12.27,0-8.1,6.59-12.17,14.26-12.17a56.92,56.92,0,0,1,7.27.83c.07,1.58.36,4.32.61,6.3l-1.4.25c-.87-3.06-2.2-4.61-4.43-5.37a11.14,11.14,0,0,0-3.06-.43c-4.36,0-7.63,3.78-7.63,10,0,6.34,2.23,11.34,8.13,11.34a4.78,4.78,0,0,0,2.31-.5c.54-.33.82-.94.82-2.05v-3.17c0-2.52-.5-2.77-3.52-3.13v-1.33h10.76Z" transform="translate(-175.34 -201.57)"/><path class="cls-5" d="M292.33,261.22c-.21,0-.64,0-1.08,0-4.57-.22-5.9-1.19-7-2.7a67.22,67.22,0,0,1-3.71-6.33,2,2,0,0,0-2.19-1.19l-.72,0v5.26c0,2.91.36,3.16,3.06,3.49V261h-11v-1.33c2.74-.29,3.06-.58,3.06-3.49V242.39c0-2.84-.36-3.24-3.06-3.46V237.6h10.44c3.2,0,5,.36,6.52,1.37a5.5,5.5,0,0,1,2.41,4.79c0,3.2-2.13,4.89-4.5,5.83.54,1.08,1.94,3.42,3,5.08a28.9,28.9,0,0,0,2.74,3.74,4.4,4.4,0,0,0,2.27,1.58Zm-13.71-11.77a5.31,5.31,0,0,0,3.53-.94,5.15,5.15,0,0,0,1.69-4.21c0-3.82-2.2-5.19-4.21-5.19a2.48,2.48,0,0,0-1.66.36c-.25.22-.32.65-.32,1.37v8.61Z" transform="translate(-175.34 -201.57)"/><path class="cls-5" d="M307.31,261v-1.33c2.27-.33,2.27-.72,1.76-2.27-.36-1.08-.93-2.7-1.47-4.14h-7c-.4,1.12-.9,2.48-1.26,3.6-.76,2.27.11,2.56,2.95,2.81V261h-8.89v-1.33c2.27-.29,2.84-.61,4.07-3.64l7.48-18.61,1.73-.32c2.31,6.26,4.75,12.67,7.09,18.68,1.33,3.35,1.66,3.6,4,3.89V261Zm-3.17-17.21c-1,2.6-2.05,5-2.95,7.64h5.72Z" transform="translate(-175.34 -201.57)"/><path class="cls-5" d="M344.14,238.93c-2.2.29-2.88.76-3,2.38-.11,1.4-.22,2.63-.22,5.76V261.4h-2l-15-18v8.13a53.89,53.89,0,0,0,.18,5.58c.14,1.59.9,2.41,3.56,2.56V261h-8.93v-1.33c2.06-.18,2.95-.72,3.17-2.41a46.9,46.9,0,0,0,.22-5.73V243a4.25,4.25,0,0,0-.76-2.91c-.65-.9-1.51-1-3-1.16V237.6h7l13.71,16v-6.48c0-3.13,0-4.32-.14-5.65-.11-1.55-.69-2.31-3.67-2.49V237.6h8.89Z" transform="translate(-175.34 -201.57)"/><path class="cls-5" d="M373.73,243.83a11.22,11.22,0,0,0-1.55-3.53c-.65-.75-.93-1-3.06-1h-2.3v16.92c0,3,.36,3.24,3.56,3.49V261H358.43v-1.33c3.06-.25,3.38-.47,3.38-3.49V239.26h-2.19c-2,0-2.59.32-3.28,1.19a13.52,13.52,0,0,0-1.47,3.42H353.5c.25-2.63.5-5.44.58-7.17h1.08c.54.83,1,.9,2,.9h14.4a2.35,2.35,0,0,0,2.08-.9h1.05c0,1.51.18,4.68.36,7Z" transform="translate(-175.34 -201.57)"/><path class="cls-5" d="M390.29,237.1a11.73,11.73,0,0,1,12.09,12c0,7.67-5.47,12.49-12.27,12.49a12,12,0,0,1-12.42-12.2C377.69,243.18,382.08,237.1,390.29,237.1Zm-.54,1.58c-3.67,0-6.37,3.6-6.37,10,0,6.09,2.41,11.31,7.27,11.31,3.42,0,6.08-3.32,6.08-9.9C396.73,242.93,393.92,238.68,389.75,238.68Z" transform="translate(-175.34 -201.57)"/><path class="cls-5" d="M415.74,237.6a11.85,11.85,0,0,1,6.48,1.48,6,6,0,0,1,2.81,5.4c0,5.22-4.43,7.41-8.28,7.45a10.49,10.49,0,0,1-1.08-.07l-2.09-.54v4.89c0,3,.25,3.17,3.38,3.46V261H405.52v-1.33c2.7-.33,3.06-.43,3.06-3.46V242.46c0-3-.36-3.35-3.06-3.53V237.6Zm-2.16,12.21a4.7,4.7,0,0,0,1.91.36c1.65,0,4.35-1,4.35-5.73,0-4-2.19-5.36-4.53-5.36a2.16,2.16,0,0,0-1.4.36c-.26.21-.33.57-.33,1.11Z" transform="translate(-175.34 -201.57)"/><path class="cls-5" d="M447.67,254.88c-.18,1-1.19,5.11-1.51,6.12H427.48v-1.3c3.27-.32,3.49-.5,3.49-3.52V242.43c0-3.06-.43-3.28-2.88-3.5V237.6h11.7c3.78,0,5,0,5.54-.07,0,.65.22,3.6.36,5.83l-1.4.18a9.24,9.24,0,0,0-1.55-3.35c-.65-.72-1.12-.93-2.95-.93h-2.34c-1.37,0-1.51.07-1.51,1.29v7.53h3.52c2,0,2.38-.54,2.92-3.1h1.4v8h-1.4c-.58-2.66-.87-3.1-2.95-3.1h-3.49v6.19c0,2.49.07,3.24,2.3,3.28h2.55c2,0,2.56-.25,3.35-1.22a16.47,16.47,0,0,0,2.2-3.6Z" transform="translate(-175.34 -201.57)"/><path class="cls-5" d="M450.08,244.23c2.38-.87,3.32-2,3.32-3.06,0-1.34-1.3-1.8-2.74-2.13-.25-.07-.61-.43-.61-1.26a2.22,2.22,0,0,1,2.41-2.08,3.81,3.81,0,0,1,3.71,4.13c0,3.24-2.81,5-5.55,5.73Zm7.42,0c2.38-.87,3.31-2,3.31-3.06,0-1.34-1.3-1.8-2.73-2.13-.26-.07-.62-.43-.62-1.26a2.22,2.22,0,0,1,2.42-2.08,3.81,3.81,0,0,1,3.7,4.13c0,3.24-2.81,5-5.54,5.73Z" transform="translate(-175.34 -201.57)"/></svg>